<svg width="181" height="76" viewBox="0 0 181 76" fill="none" xmlns="http://www.w3.org/2000/svg">
<path d="M116.865 42.637C116.751 42.7886 116.64 42.9421 116.532 43.0977C115.989 41.9554 115.307 40.9837 114.488 40.1825C113.4 39.1192 112.115 38.3448 110.634 37.8594C109.153 37.3509 107.533 37.0966 105.774 37.0966C103.275 37.0966 101.076 37.5473 99.1786 38.4488C97.4078 39.2685 95.909 40.4102 94.6823 41.8738L94.4921 37.7901H88.3824V75.3065H94.8393V47.8198C95.0821 47.2792 95.3598 46.7676 95.6724 46.285C96.4361 45.1061 97.4544 44.1815 98.7273 43.5111C100 42.8408 101.585 42.5056 103.483 42.5056C105.103 42.5056 106.515 42.783 107.718 43.3378C108.922 43.8694 109.847 44.7247 110.495 45.9036C111.167 47.0825 111.502 48.6543 111.502 50.6192V75.3065H117.924V50.3166C118.009 49.5563 118.171 48.825 118.41 48.1227C118.461 47.9828 118.514 47.8451 118.571 47.7094C117.588 46.1669 117.009 44.416 116.865 42.637Z" fill="black"/>
<path d="M131.614 43.6035C131.369 43.4618 131.111 43.3386 130.838 43.2338C129.658 42.7483 128.246 42.5056 126.603 42.5056C125.254 42.5056 124.053 42.7271 123.001 43.1701C122.95 43.0851 122.9 42.9981 122.853 42.9094C122.085 41.4669 122.006 40.0634 122.636 38.1857C124.363 37.4596 126.31 37.0966 128.477 37.0966C130.491 37.0966 132.273 37.3624 133.823 37.8941C134.96 38.2781 135.964 38.8128 136.835 39.4983C138.06 41.3934 138.771 42.3682 139.074 42.5862C139.213 42.6865 139.369 42.76 139.534 42.8088C139.806 43.3484 140.043 43.9292 140.245 44.5513C140.801 46.2619 141.079 48.2961 141.079 50.6538V75.3065H134.622V50.5845C134.622 50.3825 134.619 50.1848 134.613 49.9915C135.442 49.1467 136.052 48.0973 136.446 46.84C137.016 45.0206 136.334 42.6969 134.843 41.3708C133.897 40.53 133.787 40.5913 132.135 42.8813L131.614 43.6035Z" fill="black"/>
<path d="M38.8799 75.3065V24.8223H32.2495V63.8644L6.69985 24.8223H0V75.3065H6.69985V36.3685L32.1454 75.3065H38.8799Z" fill="black"/>
<path fill-rule="evenodd" clip-rule="evenodd" d="M72.0728 71.3411C71.7669 71.6612 71.4409 71.9775 71.0947 72.29C69.9145 73.3533 68.5027 74.2432 66.8596 74.9598C65.2396 75.6533 63.4113 76 61.3748 76C58.829 76 56.5958 75.503 54.6749 74.509C52.7772 73.5151 51.2961 72.1859 50.2315 70.5216C49.1901 68.8342 48.6693 66.9503 48.6693 64.8699C48.6693 62.8588 49.0628 61.0905 49.8496 59.5649C50.6365 58.0161 51.7705 56.7332 53.2516 55.7161C54.7328 54.6759 56.5148 53.89 58.5976 53.3584C60.6805 52.8267 63.0063 52.5609 65.5752 52.5609H71.9279V49.579C71.9279 48.0996 71.627 46.8167 71.0253 45.7302C70.4467 44.6207 69.5673 43.7654 68.387 43.1644C67.2067 42.5634 65.7487 42.2629 64.013 42.2629C62.393 42.2629 60.9698 42.5403 59.7432 43.0951C58.5398 43.6498 57.5909 44.378 56.8966 45.2795C56.2255 46.181 55.8899 47.1518 55.8899 48.192H49.4678C49.4678 46.8513 49.8149 45.5222 50.5092 44.2046C51.2035 42.887 52.1986 41.6966 53.4946 40.6333C54.8138 39.5468 56.3875 38.6916 58.2158 38.0674C60.0672 37.4202 62.1269 37.0966 64.3949 37.0966C67.1257 37.0966 69.5326 37.5589 71.6155 38.4835C73.7215 39.4081 75.3646 40.8066 76.5449 42.679C77.7483 44.5282 78.35 46.8513 78.35 49.6483V67.1236C78.35 68.3719 78.4542 69.701 78.6624 71.1111C78.8939 72.5211 79.2294 73.7347 79.6692 74.7518V75.3065H72.9693C72.6453 74.5668 72.3907 73.5844 72.2056 72.3593C72.1542 72.0128 72.1099 71.6734 72.0728 71.3411ZM71.9279 64.7588C71.7076 65.1955 71.4299 65.6371 71.0947 66.0834C70.2153 67.2855 69.0235 68.3025 67.5192 69.1347C66.0149 69.9669 64.2792 70.3829 62.312 70.3829C60.7383 70.3829 59.4076 70.1055 58.3199 69.5508C57.2553 68.9729 56.4569 68.1985 55.9246 67.2277C55.3923 66.2568 55.1262 65.1819 55.1262 64.0031C55.1262 62.8473 55.3808 61.8417 55.8899 60.9865C56.3991 60.1081 57.1396 59.3799 58.1116 58.8021C59.0836 58.2242 60.287 57.7965 61.7219 57.5191C63.1568 57.2186 64.7883 57.0684 66.6166 57.0684H71.9279V64.7588Z" fill="black"/>
<path fill-rule="evenodd" clip-rule="evenodd" d="M159.269 74.6824C161.398 75.5608 163.77 76 166.385 76C168.862 76 171.002 75.6533 172.807 74.9598C174.636 74.2663 176.175 73.3648 177.424 72.2553C178.674 71.1457 179.704 69.9784 180.514 68.7533L176.626 65.6674C175.446 67.2161 174.069 68.4528 172.495 69.3774C170.921 70.302 169 70.7643 166.732 70.7643C164.974 70.7643 163.4 70.4292 162.011 69.7588C160.646 69.0885 159.477 68.1638 158.505 66.9849C157.556 65.8061 156.827 64.4422 156.318 62.8935C155.877 61.4653 155.636 59.9512 155.595 58.3513H181V55.4734C181 52.8383 180.699 50.4111 180.097 48.192C179.496 45.9498 178.57 44.0081 177.32 42.3669C176.071 40.7026 174.462 39.4081 172.495 38.4835C170.551 37.5589 168.237 37.0966 165.552 37.0966C163.446 37.0966 161.41 37.5242 159.442 38.3795C157.475 39.2348 155.716 40.4946 154.166 42.1589C152.615 43.8232 151.389 45.8574 150.486 48.2614C149.584 50.6423 149.132 53.3584 149.132 56.4096V57.8659C149.132 60.501 149.537 62.9282 150.347 65.1473C151.157 67.3664 152.314 69.2849 153.819 70.903C155.346 72.5211 157.163 73.7809 159.269 74.6824ZM155.783 53.1156C155.905 52.1518 156.083 51.2503 156.318 50.4111C156.804 48.6775 157.487 47.2096 158.366 46.0076C159.246 44.8056 160.299 43.9041 161.525 43.3031C162.752 42.679 164.094 42.3669 165.552 42.3669C167.751 42.3669 169.486 42.8755 170.759 43.8926C172.032 44.9096 172.958 46.2041 173.536 47.776C174.138 49.3478 174.485 50.9659 174.578 52.6302V53.1156H155.783Z" fill="black"/>
<path d="M103.949 27.3374C103.221 26.0349 102.927 24.2164 103.276 23.1863C103.643 22.1035 104.132 21.4715 105.174 20.7313C106.436 19.8362 107.777 19.3029 109.786 18.8979C114.118 18.0243 119.388 18.7467 124.558 20.9227L126.067 21.5576L125.749 21.0502C125.209 20.1884 122.578 17.1598 121.318 15.9503C119.187 13.904 117.081 12.6071 114.747 11.9037C113.709 11.591 113.525 11.396 113.626 10.7144C113.689 10.2927 113.75 10.2117 114.096 10.0912C114.584 9.92127 115.491 10.0545 116.744 10.4805C117.521 10.7444 118.15 11.1308 120.222 12.6148C121.614 13.6116 123.07 14.7233 123.458 15.0856L124.163 15.7442L123.301 13.8588C122.127 11.2931 121.676 9.50675 121.703 7.52745C121.72 6.25736 121.921 5.55228 122.311 5.39307C123.344 4.97107 123.917 5.57708 123.766 6.93339C123.5 9.32328 124.525 12.2847 127.265 17.0434C127.963 18.2553 128.664 19.4013 128.824 19.5902L129.114 19.9335L129.232 18.8665C129.882 12.9883 132.484 6.46697 135.509 3.13414C137.865 0.539162 140.052 -0.469332 141.87 0.201944C145.604 1.5811 148.118 8.34932 147.896 16.4269C147.865 17.5685 147.931 18.3884 148.059 18.4676C148.178 18.5402 149.011 18.9765 149.911 19.4369C151.645 20.3242 152.35 20.8753 153.574 22.3012C156.334 25.5167 157.201 29.9476 155.802 33.6856C155.418 34.7119 155.159 35.1498 154.252 36.3043C153.311 37.5028 153.013 37.7824 152.054 38.3666C149.61 39.8554 146.902 39.9415 145.001 38.5906C143.589 37.5877 142.719 35.9835 143.215 35.2969C143.347 35.1127 143.785 34.941 144.327 34.86C147.453 34.3929 149.555 32.1185 149.559 29.1982C149.562 27.6769 148.889 26.3221 147.553 25.1564C146.424 24.1718 144.883 23.6648 142.995 23.6569C141.534 23.6507 140.722 22.6492 141.2 21.4432C142.895 17.1727 143.602 10.2891 142.483 8.96699C142.056 8.46339 141.464 8.28184 141.077 8.53645C140.858 8.68089 140.258 9.61071 139.369 11.1836C138.196 13.2602 137.873 13.8583 137.745 13.8193C137.685 13.8008 137.668 13.6381 137.625 13.4218C137.486 12.7308 137.509 11.6471 137.691 10.2416C137.935 8.35617 137.653 7.67853 136.708 7.88051C136.1 8.01058 135.003 9.40962 134.085 11.2263C132.682 14.0038 131.802 17.7326 131.613 21.7C131.544 23.1507 131.583 23.3876 131.976 23.8982C132.564 24.6629 141.639 38.9571 142.053 39.7715C142.431 40.5145 142.426 40.9506 142.032 41.7335C141.505 42.7802 139.962 43.2251 139.074 42.5862C138.521 42.1884 136.61 39.2696 132.69 32.837C131.749 31.2917 130.6 29.4471 130.138 28.7376C129.676 28.0283 129.123 27.111 128.91 26.6992C128.524 25.9545 128.514 25.9465 126.993 25.1288C123.552 23.2792 119.211 21.9435 116.011 21.7494C114.874 21.6805 113.112 21.9861 112.714 22.3214C111.948 22.9657 112.632 23.6392 115.368 24.9347C117.172 25.7889 117.324 25.8838 117.468 26.2406C117.638 26.6632 116.93 26.7063 114.633 26.4132C111.869 26.0604 111.105 26.0705 110.821 26.4644C110.034 27.5555 112.297 29.4211 116.436 31.0925C118.148 31.7843 119.103 32.0768 121.74 32.7175C123.214 33.0754 123.606 33.2273 123.762 33.5003C124.033 33.9747 123.726 35.5394 123.056 37.0951C122.001 39.5471 121.943 41.2008 122.853 42.9094C124.218 45.4714 127.161 46.4886 129.705 45.2772L130.773 44.7686L132.135 42.8813C133.787 40.5913 133.897 40.53 134.843 41.3708C136.334 42.6969 137.016 45.0206 136.446 46.84C135.458 49.9946 133.11 51.8405 129.337 52.43C127.822 52.6666 127.199 52.6666 125.881 52.4296C123.761 52.0484 122.89 51.6765 121.184 50.4234C120.033 49.5785 119.62 49.1818 118.976 48.3015C116.92 45.4942 116.292 41.8578 117.303 38.6116C117.523 37.9053 117.698 37.2921 117.693 37.2491C117.687 37.2059 117.004 36.9066 116.175 36.5836C113.466 35.5282 112.639 35.0585 109.502 32.7926C106.175 30.3888 105.017 29.2517 103.949 27.3374Z" fill="#70ACC7"/>
<path d="M128.859 37.0989C128.752 37.0974 128.644 37.0966 128.535 37.0966C126.152 37.0966 124.034 37.5358 122.183 38.4142C120.331 39.2694 118.769 40.4368 117.496 41.9162C117.175 42.2963 116.873 42.6901 116.59 43.0977C116.046 41.9554 115.365 40.9837 114.545 40.1825C113.458 39.1192 112.173 38.3448 110.692 37.8594C109.211 37.3509 107.591 37.0966 105.832 37.0966C103.333 37.0966 101.134 37.5473 99.2364 38.4488C97.4656 39.2685 95.9669 40.4102 94.7402 41.8738L94.55 37.7901H88.4403V75.3065H94.8971V47.8198C95.1399 47.2792 95.4177 46.7676 95.7303 46.285C96.494 45.1061 97.5123 44.1815 98.7851 43.5111C100.058 42.8408 101.643 42.5056 103.541 42.5056C105.161 42.5056 106.573 42.783 107.776 43.3378C108.98 43.8694 109.905 44.7247 110.553 45.9036C111.224 47.0825 111.56 48.6543 111.56 50.6192V75.3065H117.982V50.3166C118.067 49.5563 118.229 48.825 118.468 48.1227C118.862 47.0363 119.429 46.077 120.169 45.2448C120.91 44.3895 121.824 43.7192 122.912 43.2338C123.999 42.7483 125.249 42.5056 126.661 42.5056C127.446 42.5056 128.179 42.5611 128.859 42.6721V37.0989Z" fill="black"/>
</svg>
