<svg width="10" height="12" viewBox="0 0 10 12" fill="none" xmlns="http://www.w3.org/2000/svg">
<path d="M3.51424 1.125C3.51424 1.02554 3.55375 0.930161 3.62408 0.859835C3.6944 0.789509 3.78978 0.75 3.88924 0.75C3.9887 0.75 4.08408 0.789509 4.15441 0.859835C4.22473 0.930161 4.26424 1.02554 4.26424 1.125V10.3448C4.26423 10.4189 4.24225 10.4913 4.20109 10.5529C4.15993 10.6146 4.10143 10.6626 4.03298 10.691C3.96453 10.7194 3.8892 10.7269 3.81649 10.7125C3.74379 10.6982 3.67698 10.6626 3.62449 10.6103L0.138491 7.125C0.103568 7.09017 0.0758611 7.04878 0.0569563 7.00323C0.0380515 6.95767 0.0283203 6.90883 0.0283203 6.8595C0.0283203 6.81017 0.0380515 6.76133 0.0569563 6.71578C0.0758611 6.67022 0.103568 6.62883 0.138491 6.594H0.139991C0.210283 6.52393 0.305488 6.48458 0.404741 6.48458C0.503994 6.48458 0.599199 6.52393 0.669491 6.594L3.51424 9.441V1.125ZM5.76424 1.65525C5.7644 1.5812 5.78649 1.50886 5.8277 1.44734C5.86892 1.38583 5.92743 1.33789 5.99585 1.30958C6.06427 1.28126 6.13954 1.27384 6.21217 1.28824C6.2848 1.30264 6.35155 1.33822 6.40399 1.3905L9.88999 4.875C9.92491 4.90983 9.95262 4.95122 9.97153 4.99677C9.99043 5.04233 10.0002 5.09117 10.0002 5.1405C10.0002 5.18983 9.99043 5.23867 9.97153 5.28423C9.95262 5.32978 9.92491 5.37117 9.88999 5.406H9.88849C9.8182 5.47607 9.72299 5.51542 9.62374 5.51542C9.52449 5.51542 9.42928 5.47607 9.35899 5.406L6.51424 2.5605V10.875C6.51424 10.9745 6.47473 11.0698 6.40441 11.1402C6.33408 11.2105 6.2387 11.25 6.13924 11.25C6.03978 11.25 5.9444 11.2105 5.87408 11.1402C5.80375 11.0698 5.76424 10.9745 5.76424 10.875V1.65525Z" fill="black"/>
</svg>
